<svg xmlns="http://www.w3.org/2000/svg" data-name="Layer 1" viewBox="0 0 98 98" x="0px" y="0px"><title>Untitled-6</title><path d="M52.9,59.1c-2.56,1.41-5.22,2.87-8.86,3a6.92,6.92,0,0,1-6-2.29c-1.53-1.86-1.83-4.48-1.77-6.53a10.29,10.29,0,0,0-1.13,4.08.75.75,0,0,1-1.28.53,4.36,4.36,0,0,0-3.23-1.52,4.05,4.05,0,0,0-2.16.82l5.89,3a.75.75,0,0,1,.39.48c.1.41,2.7,9.92,16.62,9.92,12.21,0,16.88-10.12,17.9-12.8C61,54.63,57.07,56.8,52.9,59.1Zm9.54,3.33a1.34,1.34,0,1,1-1.34-1.34A1.34,1.34,0,0,1,62.44,62.43Z" transform="translate(-1.17 -0.97)" />
<path d="M50.93,27.94V25.72A20.26,20.26,0,0,0,46,28.08a21.93,21.93,0,0,1,3-.22C49.67,27.86,50.3,27.9,50.93,27.94Z" transform="translate(-1.17 -0.97)" />
<path d="M49.43,72v2.23a20.26,20.26,0,0,0,4.95-2.37,21.93,21.93,0,0,1-3,.22C50.69,72.1,50.06,72.06,49.43,72Z" transform="translate(-1.17 -0.97)"/><path d="M65.62,39.28c-.1-.41-2.7-9.92-16.62-9.92-12.21,0-16.88,10.12-17.9,12.8,8.24,3.18,12.19,1,16.37-1.29,2.56-1.41,5.22-2.87,8.86-3h.47a6.76,6.76,0,0,1,5.52,2.3c1.53,1.86,1.83,4.48,1.77,6.53a10.29,10.29,0,0,0,1.13-4.08.75.75,0,0,1,1.28-.53,4.38,4.38,0,0,0,3.23,1.52,4,4,0,0,0,2.16-.82l-5.89-3A.75.75,0,0,1,65.62,39.28Zm-26.35-.4a1.34,1.34,0,1,1,1.34-1.34A1.34,1.34,0,0,1,39.26,38.88Z" transform="translate(-1.17 -0.97)"  />
<path d="M50.18,1a49,49,0,1,0,49,49A49,49,0,0,0,50.18,1ZM70.93,57.59c0,.12-3,9.76-12.37,13.26C52,75.77,48.83,75.9,48.7,75.91h0a.75.75,0,0,1-.75-.75V71.87C37.14,70.54,34,63.09,33.4,61.4L26.82,58a.75.75,0,0,1-.23-1.15,6,6,0,0,1,4-2,5.18,5.18,0,0,1,3.25,1,13.33,13.33,0,0,1,3-6.13.75.75,0,0,1,1.3.66c0,.06-1.29,5.57,1.08,8.44A5.55,5.55,0,0,0,44,60.62c3.29-.13,5.68-1.44,8.2-2.83,4.4-2.42,9-4.93,18.32-1.1A.75.75,0,0,1,70.93,57.59Zm2.85-14.52a6,6,0,0,1-4,2,5.14,5.14,0,0,1-3.25-1,13.33,13.33,0,0,1-3,6.13.75.75,0,0,1-1.3-.66c0-.06,1.29-5.57-1.08-8.44a5.57,5.57,0,0,0-4.78-1.74c-3.29.13-5.68,1.44-8.2,2.83-4.4,2.42-9,4.93-18.32,1.1a.75.75,0,0,1-.43-.9c0-.12,3-9.76,12.37-13.26,6.61-4.92,9.73-5.06,9.86-5.06a.83.83,0,0,1,.54.21.75.75,0,0,1,.23.54v3.28c10.79,1.34,14,8.78,14.53,10.48l6.58,3.35a.75.75,0,0,1,.23,1.15Z" transform="translate(-1.17 -0.97)" stroke="white" stroke-width="2"  /></svg>
